<?xml version="1.0" encoding="UTF-8"?>
<svg id="Layer_1" data-name="Layer 1" xmlns="http://www.w3.org/2000/svg" viewBox="0 0 1250 350">
  <g>
    <path d="M260.92,45.58h-28.29v49.84h22.8c24.07,0,40.01,13.33,40.01,38.45s-15.94,37.32-40.01,37.32h-22.8v48.22h29.56c59.96,0,96.14-36.56,96.14-87.62s-37.03-86.22-97.41-86.22Z"/>
    <rect x="32.11" y="45.7" width="51.09" height="251.52"/>
    <rect x="98.96" y="45.73" width="51.09" height="173.68"/>
    <rect x="165.78" y="45.7" width="51.09" height="251.52"/>
    <polygon points="532.51 297.22 469.63 297.22 344.07 45.7 406.96 45.7 532.51 297.22"/>
  </g>
  <g>
    <path d="M570.97,209.44l.35-40.26-.35-39.5c0-.7.41-1.05,1.05-1.05h26.39c.64,0,1.05.29,1.29.88l14.22,39.08,5.27,14.45,4.86-14.45,13.16-39.08c.18-.58.64-.88,1.23-.88h25.39c.7,0,1.05.35,1.05,1.05l-.35,39.5.35,40.26c0,.76-.35,1.11-1.05,1.11h-19.78c-.64,0-1.05-.41-1.05-1.11l-.06-34.58.7-17.61-17.67,52.43c-.18.58-.64.88-1.23.88h-14.8c-.58,0-1.05-.29-1.29-.88l-19.31-53.42.76,18.61-.06,34.58c0,.76-.41,1.11-1.05,1.11h-16.97c-.64,0-1.05-.35-1.05-1.11Z"/>
    <path d="M674.31,180.59c0-17.44,10.53-31.48,27.15-31.48,7.02,0,12.64,2.46,16.62,7.02l-.35-4.74c-.06-.7.35-1.11,1.05-1.11h19.07c.7,0,1.05.35,1.05,1.05l-.35,29.26.35,28.85c0,.76-.35,1.11-1.05,1.11h-18.67c-.64,0-1.05-.35-1.05-1.11l.18-5.68c-4.15,5.03-10.12,7.96-17.79,7.96-17.03,0-26.21-13.58-26.21-31.13ZM718.42,180.65c.12-11.94-3.69-17.73-11-17.79-7.61-.12-11.64,5.5-11.64,17.2,0,12.35,4.15,18.08,11.29,18.02,7.2,0,11.23-5.5,11.35-17.44Z"/>
    <path d="M747.51,191.94c-.06-.7.41-1.11,1.05-1.11h18.37c.64,0,.99.35,1.11,1.05.53,5.03,4.1,7.37,10.53,7.37,5.97,0,8.84-1.93,8.84-5.5,0-9.65-38.5.06-38.5-24.87,0-12.76,10.65-20.07,27.09-20.07s27.21,6.44,29.02,18.84c.12.76-.35,1.17-1.05,1.17h-17.44c-.64,0-.99-.35-1.17-.99-.82-3.98-3.63-6.38-9.01-6.38-4.56,0-7.43,1.52-7.43,5.27,0,10.24,38.56-.35,38.56,24.98,0,12.81-12,20.3-28.9,20.3s-30.19-6.73-31.07-20.07Z"/>
    <path d="M819.89,191.47l.18-26.5h-6.79c-.7,0-1.11-.41-1.11-1.11v-12.52c0-.64.41-1.05,1.11-1.05h6.73l-.06-14.04c0-.7.35-1.05,1.05-1.05h18.84c.7,0,1.05.35,1.05,1.05l-.06,14.04h13.22c.64,0,1.05.41,1.05,1.05v12.52c0,.7-.41,1.11-1.05,1.11h-13.28l.18,25.45c0,5.27,2.63,6.55,5.85,6.55,2.98,0,5.09-.53,6.9-1.05.76-.23,1.23.18,1.23.94v11.29c0,.64-.23,1.05-.82,1.23-3.92,1.41-8.19,2.46-12.46,2.46-11.53,0-21.77-5.73-21.77-20.36Z"/>
    <path d="M860.73,180.59c0-19.43,12.4-31.95,31.36-31.95,20.48,0,31.71,12.52,32.06,35.05,0,.7-.35,1.11-1.05,1.11h-41.37c.76,10.06,4.56,13.52,11.06,13.52,4.8,0,8.19-1.99,9.65-6.79.18-.58.58-.94,1.17-.94h18.02c.7,0,1.17.29,1.05.7-1.64,10.41-12.05,20.89-29.9,20.89-20.13,0-32.06-12.93-32.06-31.6ZM902.22,172.69c-.35-5.79-3.51-10.59-9.65-10.59-5.44,0-9.07,2.93-10.42,10.59h20.07Z"/>
    <path d="M932.82,209.44l.47-28.79-.47-29.31c0-.7.35-1.05,1.05-1.05h18.72c.64,0,1.05.35.99,1.11l-.41,8.6c4.74-6.79,12.11-10.12,20.36-10.12.76,0,1.58.12,2.34.23.64.12.99.58.99,1.17v13.28c0,.7-.35,1.11-1.05,1.05-.53-.06-1.11-.06-1.52-.06-12.52,0-21.01,7.2-20.6,21.12v22.76c0,.76-.35,1.11-1.05,1.11h-18.78c-.7,0-1.05-.35-1.05-1.11Z"/>
    <path d="M985.49,209.44l.53-39.32-.53-40.43c0-.7.41-1.05,1.05-1.05h32.88c21.12,0,32.71,9.13,32.71,27.09s-12,27.97-32.94,27.97h-11.7l.23,25.74c0,.76-.41,1.11-1.11,1.11h-20.07c-.64,0-1.05-.35-1.05-1.11ZM1019.01,168.24c6.85,0,12.05-3.45,12.05-12.11s-4.62-12.11-12.52-12.11h-11l-.23,24.22h11.7Z"/>
    <path d="M1060.74,209.44l.47-39.61-.47-40.14c0-.7.41-1.05,1.11-1.05h18.55c.7,0,1.11.35,1.11,1.05l-.47,40.2.47,39.55c0,.76-.41,1.11-1.11,1.11h-18.55c-.7,0-1.11-.35-1.11-1.11Z"/>
    <path d="M1090.75,180.59c0-17.44,10.53-31.48,27.15-31.48,7.02,0,12.64,2.46,16.62,7.02l-.35-4.74c-.06-.7.35-1.11,1.05-1.11h19.07c.7,0,1.05.35,1.05,1.05l-.35,29.26.35,28.85c0,.76-.35,1.11-1.05,1.11h-18.67c-.64,0-1.05-.35-1.05-1.11l.18-5.68c-4.15,5.03-10.12,7.96-17.79,7.96-17.03,0-26.21-13.58-26.21-31.13ZM1134.87,180.65c.12-11.94-3.69-17.73-11-17.79-7.61-.12-11.64,5.5-11.64,17.2,0,12.35,4.15,18.08,11.29,18.02,7.2,0,11.23-5.5,11.35-17.44Z"/>
    <path d="M1165.24,209.44l.29-28.55-.06-29.55c0-.7.41-1.05,1.11-1.05h18.08c.64,0,1.05.35.99,1.11l-.29,6.2c4.1-5.79,11.29-8.72,19.13-8.72,13.52,0,21.42,9.01,21.42,22.82v13.28l.35,24.46c0,.76-.41,1.11-1.11,1.11h-19.25c-.7,0-1.05-.35-1.05-1.11l.29-24.46v-11.76c0-5.85-3.04-9.07-7.37-9.07-6.2,0-11.29,6.55-11.41,18.72v2.52l.29,24.05c0,.76-.35,1.11-1.05,1.11h-19.31c-.7,0-1.05-.35-1.05-1.11Z"/>
    <path d="M567.68,296.88l21.77-59.39c.09-.26.3-.39.56-.39h4.7c.26,0,.47.13.56.39l21.72,59.39c.13.3-.09.56-.43.56h-3.66c-.26,0-.47-.13-.56-.39l-7.11-19.91h-25.99l-7.11,19.91c-.09.26-.3.39-.56.39h-3.45c-.39,0-.56-.26-.43-.56ZM603.97,273.47l-11.77-32.93-11.77,32.93h23.53Z"/>
    <path d="M621.82,275.28c0-12.76,6.34-23.19,17.8-23.19,6.9,0,11.94,3.36,14.74,9.57l-.09-24.05c0-.34.17-.52.52-.52h3.36c.3,0,.52.17.52.52l-.17,23.49.17,35.86c0,.34-.22.47-.52.47h-3.32c-.3,0-.52-.13-.47-.47l.17-8.71c-2.76,6.16-7.8,10.04-14.96,10.04-11.55,0-17.76-10.09-17.76-23.02ZM654.71,275.71c.09-12.8-5.17-20.47-14.18-20.47-9.91-.04-14.39,8.75-14.39,19.61s4.44,20.26,14.31,20.26c8.49,0,14.18-6.51,14.27-19.4Z"/>
    <path d="M667.3,253.04h3.71c.26,0,.47.09.56.39l11.38,30.82,3.41,9.31,3.41-9.35,11.12-30.77c.09-.26.3-.39.56-.39h3.36c.39,0,.56.26.43.56l-16.16,43.53c-.09.26-.3.39-.56.39h-4.4c-.26,0-.47-.13-.56-.39l-16.64-43.53c-.13-.3.04-.56.39-.56Z"/>
    <path d="M713.9,296.92l.13-22.97-.13-20.39c0-.34.22-.52.52-.52h3.4c.3,0,.47.17.47.52l-.09,20.39.09,22.97c0,.34-.17.52-.47.52h-3.4c-.3,0-.52-.17-.52-.52ZM713.98,247.14v-4.91c0-.34.17-.52.52-.52h3.36c.34,0,.52.17.52.52v4.91c0,.3-.17.52-.52.52h-3.36c-.34,0-.52-.22-.52-.52Z"/>
    <path d="M728.55,282.22c0-.34.17-.52.47-.52h3.1c.3,0,.52.17.52.52.17,8.88,5.22,12.97,14.4,12.97,7.59,0,13.02-3.45,13.02-9.65,0-14.52-30.56-4.05-30.56-21.29,0-7.93,6.77-12.11,16.25-12.11s16.85,4.1,17.2,13.4c0,.34-.22.52-.52.52h-3.02c-.3,0-.47-.17-.52-.52-.3-7.33-5.99-10.3-13.19-10.3s-12.07,2.93-12.07,8.88c0,13.28,30.56,2.8,30.56,21.25,0,8.15-7.54,12.97-17.24,12.97-11.25,0-18.23-5.17-18.4-16.12Z"/>
    <path d="M772.3,275.28c0-13.84,7.03-23.15,19.83-23.15s19.83,9.27,19.83,23.1-7.03,23.1-19.83,23.1-19.83-9.18-19.83-23.06ZM807.56,275.28c0-12.02-5.13-19.96-15.43-19.96-10.3.04-15.47,7.84-15.47,20s5.22,19.83,15.47,19.83,15.43-7.8,15.43-19.87Z"/>
    <path d="M821.83,296.92l.17-22.46-.17-20.9c0-.34.17-.52.47-.52h3.36c.3,0,.52.17.52.52l-.26,8.28c2.93-5.91,8.49-9.27,14.52-9.27,1.21,0,2.33.09,3.28.34.3.09.43.3.43.56v2.5c0,.3-.17.52-.56.43-.91-.22-1.94-.34-3.19-.34-6.47,0-13.02,4.27-14.4,13.96l.17,26.9c0,.34-.17.52-.52.52h-3.36c-.3,0-.47-.17-.47-.52Z"/>
  </g>
</svg>