<?xml version="1.0" encoding="UTF-8"?>
<svg id="Layer_1" data-name="Layer 1" xmlns="http://www.w3.org/2000/svg" viewBox="0 0 1250 350">
  <defs>
    <style>
      .cls-1 {
        fill: #fff;
      }
    </style>
  </defs>
  <g>
    <path class="cls-1" d="M256.59,48.57h-28.31v49.86h22.81c24.08,0,40.03,13.34,40.03,38.47s-15.95,37.33-40.03,37.33h-22.81v48.24h29.57c59.99,0,96.18-36.57,96.18-87.65s-37.04-86.25-97.45-86.25Z"/>
    <rect class="cls-1" x="27.68" y="48.69" width="51.11" height="251.62"/>
    <rect class="cls-1" x="94.56" y="48.73" width="51.11" height="173.75"/>
    <rect class="cls-1" x="161.41" y="48.69" width="51.11" height="251.62"/>
    <polygon class="cls-1" points="528.29 300.31 465.38 300.31 339.77 48.69 402.68 48.69 528.29 300.31"/>
  </g>
  <g>
    <path class="cls-1" d="M566.75,212.49l.35-40.27-.35-39.51c0-.7.41-1.05,1.05-1.05h26.4c.64,0,1.05.29,1.29.88l14.22,39.1,5.27,14.46,4.86-14.46,13.17-39.1c.18-.59.64-.88,1.23-.88h25.4c.7,0,1.05.35,1.05,1.05l-.35,39.51.35,40.27c0,.76-.35,1.11-1.05,1.11h-19.78c-.64,0-1.05-.41-1.05-1.11l-.06-34.59.7-17.62-17.68,52.45c-.18.59-.64.88-1.23.88h-14.81c-.59,0-1.05-.29-1.29-.88l-19.32-53.44.76,18.61-.06,34.59c0,.76-.41,1.11-1.05,1.11h-16.97c-.64,0-1.05-.35-1.05-1.11Z"/>
    <path class="cls-1" d="M670.13,183.63c0-17.44,10.54-31.49,27.16-31.49,7.02,0,12.64,2.46,16.62,7.02l-.35-4.74c-.06-.7.35-1.11,1.05-1.11h19.08c.7,0,1.05.35,1.05,1.05l-.35,29.27.35,28.86c0,.76-.35,1.11-1.05,1.11h-18.67c-.64,0-1.05-.35-1.05-1.11l.18-5.68c-4.16,5.03-10.13,7.96-17.79,7.96-17.03,0-26.22-13.58-26.22-31.14ZM714.27,183.69c.12-11.94-3.69-17.74-11-17.79-7.61-.12-11.65,5.5-11.65,17.21,0,12.35,4.16,18.09,11.3,18.03,7.2,0,11.24-5.5,11.36-17.44Z"/>
    <path class="cls-1" d="M743.36,194.99c-.06-.7.41-1.11,1.05-1.11h18.38c.64,0,.99.35,1.11,1.05.53,5.03,4.1,7.38,10.54,7.38,5.97,0,8.84-1.93,8.84-5.5,0-9.66-38.52.06-38.52-24.88,0-12.76,10.65-20.08,27.1-20.08s27.22,6.44,29.03,18.85c.12.76-.35,1.17-1.05,1.17h-17.44c-.64,0-.99-.35-1.17-.99-.82-3.98-3.63-6.38-9.01-6.38-4.57,0-7.43,1.52-7.43,5.27,0,10.24,38.57-.35,38.57,24.99,0,12.82-12,20.31-28.92,20.31s-30.2-6.73-31.08-20.08Z"/>
    <path class="cls-1" d="M815.78,194.52l.18-26.52h-6.79c-.7,0-1.11-.41-1.11-1.11v-12.53c0-.64.41-1.05,1.11-1.05h6.73l-.06-14.05c0-.7.35-1.05,1.05-1.05h18.85c.7,0,1.05.35,1.05,1.05l-.06,14.05h13.23c.64,0,1.05.41,1.05,1.05v12.53c0,.7-.41,1.11-1.05,1.11h-13.29l.18,25.46c0,5.27,2.63,6.56,5.85,6.56,2.98,0,5.09-.53,6.91-1.05.76-.23,1.23.18,1.23.94v11.3c0,.64-.23,1.05-.82,1.23-3.92,1.41-8.2,2.46-12.47,2.46-11.53,0-21.77-5.74-21.77-20.37Z"/>
    <path class="cls-1" d="M856.64,183.63c0-19.43,12.41-31.96,31.37-31.96,20.49,0,31.73,12.53,32.08,35.06,0,.7-.35,1.11-1.05,1.11h-41.38c.76,10.07,4.56,13.52,11.06,13.52,4.8,0,8.19-1.99,9.66-6.79.18-.59.59-.94,1.17-.94h18.03c.7,0,1.17.29,1.05.7-1.64,10.42-12.06,20.9-29.91,20.9-20.14,0-32.08-12.94-32.08-31.61ZM898.14,175.73c-.35-5.79-3.51-10.59-9.66-10.59-5.44,0-9.07,2.93-10.42,10.59h20.08Z"/>
    <path class="cls-1" d="M928.76,212.49l.47-28.8-.47-29.33c0-.7.35-1.05,1.05-1.05h18.73c.64,0,1.05.35.99,1.11l-.41,8.6c4.74-6.79,12.12-10.13,20.37-10.13.76,0,1.58.12,2.34.23.64.12.99.59.99,1.17v13.29c0,.7-.35,1.11-1.05,1.05-.53-.06-1.11-.06-1.52-.06-12.53,0-21.01,7.2-20.6,21.13v22.77c0,.76-.35,1.11-1.05,1.11h-18.79c-.7,0-1.05-.35-1.05-1.11Z"/>
    <path class="cls-1" d="M981.44,212.49l.53-39.33-.53-40.45c0-.7.41-1.05,1.05-1.05h32.9c21.13,0,32.72,9.13,32.72,27.1s-12,27.98-32.96,27.98h-11.71l.23,25.76c0,.76-.41,1.11-1.11,1.11h-20.08c-.64,0-1.05-.35-1.05-1.11ZM1014.98,171.28c6.85,0,12.06-3.45,12.06-12.12s-4.62-12.12-12.53-12.12h-11l-.23,24.23h11.71Z"/>
    <path class="cls-1" d="M1056.72,212.49l.47-39.63-.47-40.15c0-.7.41-1.05,1.11-1.05h18.55c.7,0,1.11.35,1.11,1.05l-.47,40.21.47,39.57c0,.76-.41,1.11-1.11,1.11h-18.55c-.7,0-1.11-.35-1.11-1.11Z"/>
    <path class="cls-1" d="M1086.75,183.63c0-17.44,10.54-31.49,27.16-31.49,7.03,0,12.64,2.46,16.62,7.02l-.35-4.74c-.06-.7.35-1.11,1.05-1.11h19.08c.7,0,1.05.35,1.05,1.05l-.35,29.27.35,28.86c0,.76-.35,1.11-1.05,1.11h-18.67c-.64,0-1.05-.35-1.05-1.11l.18-5.68c-4.16,5.03-10.13,7.96-17.79,7.96-17.03,0-26.22-13.58-26.22-31.14ZM1130.88,183.69c.12-11.94-3.69-17.74-11-17.79-7.61-.12-11.65,5.5-11.65,17.21,0,12.35,4.16,18.09,11.3,18.03,7.2,0,11.24-5.5,11.36-17.44Z"/>
    <path class="cls-1" d="M1161.27,212.49l.29-28.56-.06-29.56c0-.7.41-1.05,1.11-1.05h18.09c.64,0,1.05.35.99,1.11l-.29,6.2c4.1-5.79,11.3-8.72,19.14-8.72,13.52,0,21.42,9.01,21.42,22.83v13.29l.35,24.47c0,.76-.41,1.11-1.11,1.11h-19.26c-.7,0-1.05-.35-1.05-1.11l.29-24.47v-11.77c0-5.85-3.04-9.07-7.38-9.07-6.2,0-11.3,6.56-11.41,18.73v2.52l.29,24.06c0,.76-.35,1.11-1.05,1.11h-19.32c-.7,0-1.05-.35-1.05-1.11Z"/>
    <path class="cls-1" d="M563.46,299.97l21.78-59.42c.09-.26.3-.39.56-.39h4.7c.26,0,.47.13.56.39l21.73,59.42c.13.3-.09.56-.43.56h-3.66c-.26,0-.47-.13-.56-.39l-7.11-19.92h-26l-7.11,19.92c-.09.26-.3.39-.56.39h-3.45c-.39,0-.56-.26-.43-.56ZM599.77,276.55l-11.77-32.94-11.77,32.94h23.54Z"/>
    <path class="cls-1" d="M617.63,278.36c0-12.76,6.34-23.2,17.81-23.2,6.9,0,11.94,3.36,14.75,9.57l-.09-24.06c0-.34.17-.52.52-.52h3.36c.3,0,.52.17.52.52l-.17,23.5.17,35.87c0,.34-.22.47-.52.47h-3.32c-.3,0-.52-.13-.47-.47l.17-8.71c-2.76,6.17-7.8,10.05-14.96,10.05-11.56,0-17.76-10.09-17.76-23.03ZM650.53,278.79c.09-12.81-5.17-20.48-14.19-20.48-9.92-.04-14.4,8.75-14.4,19.62s4.44,20.27,14.32,20.27c8.49,0,14.19-6.51,14.27-19.4Z"/>
    <path class="cls-1" d="M663.12,256.11h3.71c.26,0,.47.09.56.39l11.38,30.83,3.41,9.31,3.41-9.36,11.12-30.79c.09-.26.3-.39.56-.39h3.36c.39,0,.56.26.43.56l-16.17,43.55c-.09.26-.3.39-.56.39h-4.4c-.26,0-.47-.13-.56-.39l-16.64-43.55c-.13-.3.04-.56.39-.56Z"/>
    <path class="cls-1" d="M709.74,300.01l.13-22.98-.13-20.4c0-.34.22-.52.52-.52h3.41c.3,0,.47.17.47.52l-.09,20.4.09,22.98c0,.34-.17.52-.47.52h-3.41c-.3,0-.52-.17-.52-.52ZM709.83,250.21v-4.91c0-.34.17-.52.52-.52h3.36c.34,0,.52.17.52.52v4.91c0,.3-.17.52-.52.52h-3.36c-.34,0-.52-.22-.52-.52Z"/>
    <path class="cls-1" d="M724.4,285.31c0-.34.17-.52.47-.52h3.1c.3,0,.52.17.52.52.17,8.88,5.22,12.98,14.4,12.98,7.59,0,13.02-3.45,13.02-9.66,0-14.53-30.57-4.05-30.57-21.3,0-7.93,6.77-12.12,16.26-12.12s16.86,4.1,17.2,13.41c0,.34-.22.52-.52.52h-3.02c-.3,0-.47-.17-.52-.52-.3-7.33-5.99-10.31-13.19-10.31s-12.07,2.93-12.07,8.88c0,13.28,30.57,2.8,30.57,21.26,0,8.15-7.55,12.98-17.25,12.98-11.25,0-18.24-5.17-18.41-16.13Z"/>
    <path class="cls-1" d="M768.17,278.36c0-13.84,7.03-23.15,19.83-23.15s19.83,9.27,19.83,23.11-7.03,23.11-19.83,23.11-19.83-9.18-19.83-23.07ZM803.44,278.36c0-12.03-5.13-19.96-15.44-19.96-10.3.04-15.48,7.85-15.48,20.01s5.22,19.83,15.48,19.83,15.44-7.8,15.44-19.88Z"/>
    <path class="cls-1" d="M817.72,300.01l.17-22.46-.17-20.91c0-.34.17-.52.47-.52h3.36c.3,0,.52.17.52.52l-.26,8.28c2.93-5.91,8.49-9.27,14.53-9.27,1.21,0,2.33.09,3.28.34.3.09.43.3.43.56v2.5c0,.3-.17.52-.56.43-.91-.22-1.94-.34-3.19-.34-6.47,0-13.02,4.27-14.4,13.97l.17,26.91c0,.34-.17.52-.52.52h-3.36c-.3,0-.47-.17-.47-.52Z"/>
  </g>
</svg>