<?xml version="1.0" encoding="UTF-8"?>
<svg id="Layer_1" data-name="Layer 1" xmlns="http://www.w3.org/2000/svg" viewBox="0 0 760 540">
  <g>
    <path d="M284.12,47.8h-27.82v49.01h22.42c23.67,0,39.34,13.11,39.34,37.81s-15.67,36.69-39.34,36.69h-22.42v47.41h29.07c58.96,0,94.53-35.94,94.53-86.15s-36.41-84.77-95.78-84.77Z"/>
    <rect x="59.14" y="47.92" width="50.23" height="247.31"/>
    <rect x="124.87" y="47.96" width="50.23" height="170.77"/>
    <rect x="190.58" y="47.92" width="50.23" height="247.31"/>
    <polygon points="551.17 295.23 489.34 295.23 365.88 47.92 427.71 47.92 551.17 295.23"/>
  </g>
  <g>
    <path d="M59.47,404.78l.34-39.58-.34-38.83c0-.69.4-1.04,1.04-1.04h25.95c.63,0,1.04.29,1.27.86l13.98,38.43,5.18,14.21,4.78-14.21,12.95-38.43c.17-.58.63-.86,1.21-.86h24.97c.69,0,1.04.35,1.04,1.04l-.35,38.83.35,39.58c0,.75-.35,1.09-1.04,1.09h-19.45c-.63,0-1.04-.4-1.04-1.09l-.06-34,.69-17.32-17.37,51.55c-.17.58-.63.86-1.21.86h-14.56c-.58,0-1.04-.29-1.27-.86l-18.99-52.53.75,18.3-.06,34c0,.75-.4,1.09-1.04,1.09h-16.68c-.63,0-1.04-.35-1.04-1.09Z"/>
    <path d="M161.08,376.42c0-17.14,10.36-30.95,26.69-30.95,6.9,0,12.43,2.42,16.34,6.9l-.35-4.66c-.06-.69.35-1.09,1.04-1.09h18.75c.69,0,1.04.35,1.04,1.04l-.34,28.77.34,28.36c0,.75-.34,1.09-1.04,1.09h-18.35c-.63,0-1.04-.35-1.04-1.09l.17-5.58c-4.08,4.95-9.95,7.83-17.49,7.83-16.74,0-25.77-13.35-25.77-30.61ZM204.46,376.47c.12-11.74-3.62-17.43-10.82-17.49-7.48-.11-11.45,5.41-11.45,16.91,0,12.14,4.08,17.78,11.1,17.72,7.08,0,11.05-5.41,11.16-17.14Z"/>
    <path d="M233.06,387.58c-.06-.69.4-1.09,1.04-1.09h18.06c.63,0,.98.35,1.09,1.04.52,4.95,4.03,7.25,10.36,7.25,5.87,0,8.69-1.9,8.69-5.41,0-9.49-37.86.06-37.86-24.45,0-12.54,10.47-19.73,26.64-19.73s26.75,6.33,28.54,18.52c.12.75-.34,1.15-1.04,1.15h-17.14c-.63,0-.98-.35-1.15-.98-.8-3.91-3.57-6.27-8.86-6.27-4.49,0-7.31,1.5-7.31,5.18,0,10.07,37.91-.34,37.91,24.57,0,12.6-11.79,19.96-28.42,19.96s-29.69-6.62-30.55-19.73Z"/>
    <path d="M304.23,387.12l.17-26.06h-6.67c-.69,0-1.09-.4-1.09-1.09v-12.31c0-.63.4-1.04,1.09-1.04h6.62l-.06-13.81c0-.69.34-1.04,1.04-1.04h18.52c.69,0,1.04.35,1.04,1.04l-.06,13.81h13c.63,0,1.04.4,1.04,1.04v12.31c0,.69-.4,1.09-1.04,1.09h-13.06l.17,25.03c0,5.18,2.59,6.44,5.75,6.44,2.93,0,5.01-.52,6.79-1.04.75-.23,1.21.17,1.21.92v11.1c0,.63-.23,1.04-.81,1.21-3.85,1.38-8.05,2.42-12.25,2.42-11.33,0-21.4-5.64-21.4-20.02Z"/>
    <path d="M344.39,376.42c0-19.1,12.2-31.41,30.84-31.41,20.14,0,31.18,12.31,31.53,34.46,0,.69-.35,1.09-1.04,1.09h-40.67c.75,9.9,4.49,13.29,10.87,13.29,4.72,0,8.05-1.96,9.49-6.67.17-.58.57-.92,1.15-.92h17.72c.69,0,1.15.29,1.04.69-1.61,10.24-11.85,20.54-29.4,20.54-19.79,0-31.53-12.71-31.53-31.07ZM385.18,368.65c-.35-5.7-3.45-10.41-9.49-10.41-5.35,0-8.92,2.88-10.24,10.41h19.73Z"/>
    <path d="M415.27,404.78l.46-28.31-.46-28.82c0-.69.34-1.04,1.04-1.04h18.41c.63,0,1.04.35.98,1.09l-.4,8.46c4.66-6.67,11.91-9.95,20.02-9.95.75,0,1.55.12,2.3.23.63.11.98.58.98,1.15v13.06c0,.69-.35,1.09-1.04,1.04-.52-.06-1.09-.06-1.5-.06-12.31,0-20.65,7.08-20.25,20.77v22.38c0,.75-.35,1.09-1.04,1.09h-18.47c-.69,0-1.04-.35-1.04-1.09Z"/>
    <path d="M467.05,404.78l.52-38.66-.52-39.75c0-.69.4-1.04,1.04-1.04h32.33c20.77,0,32.16,8.98,32.16,26.64s-11.79,27.5-32.39,27.5h-11.51l.23,25.31c0,.75-.4,1.09-1.09,1.09h-19.73c-.63,0-1.04-.35-1.04-1.09ZM500.02,364.28c6.73,0,11.85-3.39,11.85-11.91s-4.55-11.91-12.31-11.91h-10.82l-.23,23.82h11.51Z"/>
    <path d="M541.04,404.78l.46-38.95-.46-39.47c0-.69.4-1.04,1.09-1.04h18.24c.69,0,1.09.35,1.09,1.04l-.46,39.52.46,38.89c0,.75-.4,1.09-1.09,1.09h-18.24c-.69,0-1.09-.35-1.09-1.09Z"/>
    <path d="M570.56,376.42c0-17.14,10.36-30.95,26.69-30.95,6.9,0,12.43,2.42,16.34,6.9l-.34-4.66c-.06-.69.34-1.09,1.04-1.09h18.75c.69,0,1.04.35,1.04,1.04l-.35,28.77.35,28.36c0,.75-.35,1.09-1.04,1.09h-18.35c-.63,0-1.04-.35-1.04-1.09l.17-5.58c-4.08,4.95-9.95,7.83-17.49,7.83-16.74,0-25.77-13.35-25.77-30.61ZM613.93,376.47c.12-11.74-3.62-17.43-10.82-17.49-7.48-.11-11.45,5.41-11.45,16.91,0,12.14,4.08,17.78,11.1,17.72,7.08,0,11.05-5.41,11.16-17.14Z"/>
    <path d="M643.8,404.78l.29-28.08-.06-29.05c0-.69.4-1.04,1.09-1.04h17.78c.63,0,1.04.35.98,1.09l-.29,6.1c4.03-5.7,11.1-8.57,18.81-8.57,13.29,0,21.06,8.86,21.06,22.44v13.06l.35,24.05c0,.75-.4,1.09-1.09,1.09h-18.93c-.69,0-1.04-.35-1.04-1.09l.29-24.05v-11.56c0-5.75-2.99-8.92-7.25-8.92-6.1,0-11.1,6.44-11.22,18.41v2.47l.29,23.65c0,.75-.35,1.09-1.04,1.09h-18.99c-.69,0-1.04-.35-1.04-1.09Z"/>
    <path d="M56.24,490.76l21.4-58.4c.08-.25.3-.38.55-.38h4.62c.25,0,.47.13.55.38l21.36,58.4c.13.3-.09.55-.42.55h-3.6c-.25,0-.47-.13-.55-.38l-6.99-19.58h-25.55l-6.99,19.58c-.08.25-.3.38-.55.38h-3.39c-.38,0-.55-.25-.42-.55ZM91.92,467.74l-11.57-32.38-11.57,32.38h23.14Z"/>
    <path d="M109.47,469.52c0-12.54,6.23-22.8,17.5-22.8,6.78,0,11.74,3.31,14.49,9.41l-.09-23.65c0-.34.17-.51.51-.51h3.31c.3,0,.51.17.51.51l-.17,23.1.17,35.26c0,.34-.21.47-.51.47h-3.26c-.3,0-.51-.13-.47-.47l.17-8.56c-2.71,6.06-7.67,9.87-14.71,9.87-11.36,0-17.46-9.92-17.46-22.63ZM141.81,469.95c.08-12.59-5.09-20.13-13.94-20.13-9.75-.04-14.15,8.6-14.15,19.28s4.37,19.92,14.07,19.92c8.35,0,13.94-6.4,14.03-19.07Z"/>
    <path d="M154.19,447.66h3.64c.26,0,.47.08.55.38l11.19,30.3,3.35,9.15,3.35-9.2,10.93-30.26c.08-.26.3-.38.55-.38h3.3c.38,0,.55.25.42.55l-15.89,42.8c-.08.26-.3.38-.55.38h-4.32c-.25,0-.47-.13-.55-.38l-16.36-42.8c-.13-.3.04-.55.38-.55Z"/>
    <path d="M200.01,490.8l.13-22.59-.13-20.05c0-.34.21-.51.51-.51h3.35c.3,0,.47.17.47.51l-.08,20.05.08,22.59c0,.34-.17.51-.47.51h-3.35c-.3,0-.51-.17-.51-.51ZM200.09,441.85v-4.83c0-.34.17-.51.51-.51h3.31c.34,0,.51.17.51.51v4.83c0,.3-.17.51-.51.51h-3.31c-.34,0-.51-.21-.51-.51Z"/>
    <path d="M214.42,476.35c0-.34.17-.51.47-.51h3.05c.3,0,.51.17.51.51.17,8.73,5.13,12.76,14.15,12.76,7.46,0,12.8-3.39,12.8-9.49,0-14.28-30.05-3.98-30.05-20.94,0-7.8,6.65-11.91,15.98-11.91s16.57,4.03,16.91,13.18c0,.34-.21.51-.51.51h-2.97c-.3,0-.47-.17-.51-.51-.3-7.2-5.89-10.13-12.97-10.13s-11.87,2.88-11.87,8.73c0,13.05,30.05,2.75,30.05,20.89,0,8.01-7.42,12.76-16.95,12.76-11.06,0-17.93-5.09-18.1-15.85Z"/>
    <path d="M257.44,469.52c0-13.6,6.91-22.76,19.49-22.76s19.49,9.11,19.49,22.72-6.91,22.72-19.49,22.72-19.49-9.03-19.49-22.67ZM292.11,469.52c0-11.82-5.04-19.62-15.17-19.62-10.13.04-15.21,7.71-15.21,19.66s5.13,19.49,15.21,19.49,15.17-7.67,15.17-19.54Z"/>
    <path d="M306.14,490.8l.17-22.08-.17-20.55c0-.34.17-.51.47-.51h3.31c.3,0,.51.17.51.51l-.26,8.14c2.88-5.81,8.35-9.11,14.28-9.11,1.19,0,2.29.08,3.22.34.3.08.42.3.42.55v2.46c0,.3-.17.51-.55.42-.89-.21-1.91-.34-3.14-.34-6.36,0-12.8,4.2-14.15,13.73l.17,26.44c0,.34-.17.51-.51.51h-3.31c-.3,0-.47-.17-.47-.51Z"/>
  </g>
</svg>