<?xml version="1.0" encoding="UTF-8"?>
<svg id="Layer_1" data-name="Layer 1" xmlns="http://www.w3.org/2000/svg" viewBox="0 0 760 540">
  <defs>
    <style>
      .cls-1 {
        fill: #fff;
      }
    </style>
  </defs>
  <g>
    <path class="cls-1" d="M277.27,31.91h-29.81v52.52h24.03c25.36,0,42.16,14.05,42.16,40.51s-16.79,39.32-42.16,39.32h-24.03v50.8h31.15c63.18,0,101.29-38.51,101.29-92.31s-39.01-90.84-102.63-90.84Z"/>
    <rect class="cls-1" x="36.19" y="32.04" width="53.83" height="265"/>
    <rect class="cls-1" x="106.63" y="32.08" width="53.83" height="182.98"/>
    <rect class="cls-1" x="177.03" y="32.04" width="53.82" height="265"/>
    <polygon class="cls-1" points="563.41 297.04 497.16 297.04 364.87 32.04 431.12 32.04 563.41 297.04"/>
  </g>
  <g>
    <path class="cls-1" d="M36.55,414.42l.37-42.41-.37-41.61c0-.74.43-1.11,1.11-1.11h27.8c.68,0,1.11.31,1.36.92l14.98,41.18,5.55,15.23,5.12-15.23,13.87-41.18c.18-.62.68-.92,1.29-.92h26.75c.74,0,1.11.37,1.11,1.11l-.37,41.61.37,42.41c0,.8-.37,1.17-1.11,1.17h-20.84c-.68,0-1.11-.43-1.11-1.17l-.06-36.43.74-18.56-18.62,55.23c-.19.62-.68.92-1.29.92h-15.6c-.62,0-1.11-.31-1.36-.92l-20.34-56.28.8,19.6-.06,36.43c0,.8-.43,1.17-1.11,1.17h-17.88c-.68,0-1.11-.37-1.11-1.17Z"/>
    <path class="cls-1" d="M145.42,384.03c0-18.37,11.1-33.17,28.6-33.17,7.4,0,13.32,2.59,17.51,7.4l-.37-4.99c-.06-.74.37-1.17,1.11-1.17h20.1c.74,0,1.11.37,1.11,1.11l-.37,30.82.37,30.39c0,.8-.37,1.17-1.11,1.17h-19.66c-.68,0-1.11-.37-1.11-1.17l.18-5.98c-4.38,5.3-10.66,8.38-18.74,8.38-17.94,0-27.62-14.3-27.62-32.8ZM191.9,384.09c.12-12.58-3.88-18.68-11.59-18.74-8.01-.12-12.27,5.79-12.27,18.12,0,13.01,4.38,19.05,11.9,18.99,7.58,0,11.84-5.79,11.96-18.37Z"/>
    <path class="cls-1" d="M222.55,395.99c-.06-.74.43-1.17,1.11-1.17h19.36c.68,0,1.05.37,1.17,1.11.55,5.3,4.31,7.77,11.1,7.77,6.29,0,9.31-2.03,9.31-5.79,0-10.17-40.56.06-40.56-26.2,0-13.44,11.22-21.14,28.54-21.14s28.67,6.78,30.58,19.85c.12.8-.37,1.23-1.11,1.23h-18.37c-.68,0-1.05-.37-1.23-1.05-.86-4.19-3.82-6.72-9.49-6.72-4.81,0-7.83,1.6-7.83,5.55,0,10.79,40.62-.37,40.62,26.32,0,13.5-12.64,21.39-30.45,21.39s-31.81-7.09-32.73-21.14Z"/>
    <path class="cls-1" d="M298.81,395.49l.19-27.92h-7.15c-.74,0-1.17-.43-1.17-1.17v-13.19c0-.68.43-1.11,1.17-1.11h7.09l-.06-14.79c0-.74.37-1.11,1.11-1.11h19.85c.74,0,1.11.37,1.11,1.11l-.06,14.79h13.93c.68,0,1.11.43,1.11,1.11v13.19c0,.74-.43,1.17-1.11,1.17h-13.99l.19,26.82c0,5.55,2.77,6.9,6.16,6.9,3.14,0,5.36-.55,7.27-1.11.8-.25,1.29.18,1.29.99v11.9c0,.68-.25,1.11-.86,1.29-4.13,1.48-8.63,2.59-13.13,2.59-12.14,0-22.93-6.04-22.93-21.45Z"/>
    <path class="cls-1" d="M341.84,384.03c0-20.47,13.07-33.66,33.04-33.66,21.58,0,33.41,13.19,33.78,36.93,0,.74-.37,1.17-1.11,1.17h-43.58c.8,10.6,4.81,14.24,11.65,14.24,5.05,0,8.63-2.1,10.17-7.15.18-.62.62-.99,1.23-.99h18.99c.74,0,1.23.31,1.11.74-1.72,10.97-12.7,22.01-31.5,22.01-21.21,0-33.78-13.62-33.78-33.29ZM385.55,375.7c-.37-6.1-3.7-11.16-10.17-11.16-5.73,0-9.56,3.08-10.97,11.16h21.14Z"/>
    <path class="cls-1" d="M417.79,414.42l.49-30.33-.49-30.88c0-.74.37-1.11,1.11-1.11h19.73c.68,0,1.11.37,1.05,1.17l-.43,9.06c4.99-7.15,12.76-10.67,21.45-10.67.8,0,1.67.12,2.47.25.68.12,1.05.62,1.05,1.23v13.99c0,.74-.37,1.17-1.11,1.11-.56-.06-1.17-.06-1.6-.06-13.19,0-22.13,7.58-21.7,22.25v23.98c0,.8-.37,1.17-1.11,1.17h-19.79c-.74,0-1.11-.37-1.11-1.17Z"/>
    <path class="cls-1" d="M473.28,414.42l.56-41.43-.56-42.6c0-.74.43-1.11,1.11-1.11h34.65c22.25,0,34.46,9.62,34.46,28.54s-12.64,29.47-34.71,29.47h-12.33l.25,27.12c0,.8-.43,1.17-1.17,1.17h-21.14c-.68,0-1.11-.37-1.11-1.17ZM508.6,371.02c7.21,0,12.7-3.64,12.7-12.76s-4.87-12.76-13.19-12.76h-11.59l-.25,25.52h12.33Z"/>
    <path class="cls-1" d="M552.56,414.42l.49-41.73-.49-42.29c0-.74.43-1.11,1.17-1.11h19.54c.74,0,1.17.37,1.17,1.11l-.49,42.35.49,41.67c0,.8-.43,1.17-1.17,1.17h-19.54c-.74,0-1.17-.37-1.17-1.17Z"/>
    <path class="cls-1" d="M584.18,384.03c0-18.37,11.1-33.17,28.6-33.17,7.4,0,13.32,2.59,17.51,7.4l-.37-4.99c-.06-.74.37-1.17,1.11-1.17h20.1c.74,0,1.11.37,1.11,1.11l-.37,30.82.37,30.39c0,.8-.37,1.17-1.11,1.17h-19.66c-.68,0-1.11-.37-1.11-1.17l.18-5.98c-4.38,5.3-10.67,8.38-18.74,8.38-17.94,0-27.62-14.3-27.62-32.8ZM630.66,384.09c.12-12.58-3.88-18.68-11.59-18.74-8.01-.12-12.27,5.79-12.27,18.12,0,13.01,4.38,19.05,11.9,18.99,7.58,0,11.84-5.79,11.96-18.37Z"/>
    <path class="cls-1" d="M662.66,414.42l.31-30.08-.06-31.13c0-.74.43-1.11,1.17-1.11h19.05c.68,0,1.11.37,1.05,1.17l-.31,6.53c4.32-6.1,11.9-9.19,20.16-9.19,14.24,0,22.56,9.49,22.56,24.04v13.99l.37,25.77c0,.8-.43,1.17-1.17,1.17h-20.28c-.74,0-1.11-.37-1.11-1.17l.31-25.77v-12.39c0-6.16-3.21-9.55-7.77-9.55-6.54,0-11.9,6.9-12.02,19.73v2.65l.31,25.34c0,.8-.37,1.17-1.11,1.17h-20.34c-.74,0-1.11-.37-1.11-1.17Z"/>
    <path class="cls-1" d="M33.08,506.54l22.93-62.58c.09-.27.32-.41.59-.41h4.95c.27,0,.5.14.59.41l22.89,62.58c.14.32-.09.59-.46.59h-3.86c-.27,0-.5-.14-.59-.41l-7.49-20.98h-27.38l-7.49,20.98c-.09.27-.32.41-.59.41h-3.63c-.41,0-.59-.27-.45-.59ZM71.32,481.88l-12.4-34.69-12.4,34.69h24.79Z"/>
    <path class="cls-1" d="M90.13,483.79c0-13.44,6.68-24.43,18.75-24.43,7.27,0,12.58,3.54,15.53,10.08l-.09-25.34c0-.36.18-.54.54-.54h3.54c.32,0,.54.18.54.54l-.18,24.75.18,37.78c0,.36-.23.5-.54.5h-3.5c-.32,0-.54-.14-.5-.5l.18-9.17c-2.91,6.49-8.22,10.58-15.76,10.58-12.17,0-18.71-10.63-18.71-24.25ZM124.78,484.25c.09-13.49-5.45-21.57-14.94-21.57-10.44-.04-15.17,9.22-15.17,20.66s4.68,21.34,15.08,21.34c8.95,0,14.94-6.86,15.03-20.43Z"/>
    <path class="cls-1" d="M138.04,460.36h3.9c.27,0,.5.09.59.41l11.99,32.47,3.59,9.81,3.59-9.85,11.72-32.42c.09-.27.32-.41.59-.41h3.54c.41,0,.59.27.46.59l-17.03,45.86c-.09.27-.32.41-.59.41h-4.63c-.27,0-.5-.14-.59-.41l-17.53-45.86c-.14-.32.05-.59.41-.59Z"/>
    <path class="cls-1" d="M187.14,506.59l.14-24.2-.14-21.48c0-.36.23-.54.54-.54h3.59c.32,0,.5.18.5.54l-.09,21.48.09,24.2c0,.36-.18.54-.5.54h-3.59c-.32,0-.54-.18-.54-.54ZM187.23,454.14v-5.18c0-.36.18-.54.54-.54h3.54c.36,0,.54.18.54.54v5.18c0,.32-.18.54-.54.54h-3.54c-.36,0-.54-.23-.54-.54Z"/>
    <path class="cls-1" d="M202.58,491.1c0-.36.18-.54.5-.54h3.27c.32,0,.54.18.54.54.18,9.35,5.5,13.67,15.17,13.67,7.99,0,13.71-3.63,13.71-10.17,0-15.3-32.2-4.27-32.2-22.43,0-8.36,7.13-12.76,17.12-12.76s17.75,4.31,18.12,14.12c0,.36-.23.54-.54.54h-3.18c-.32,0-.5-.18-.54-.54-.32-7.72-6.31-10.85-13.9-10.85s-12.71,3.09-12.71,9.36c0,13.99,32.2,2.95,32.2,22.39,0,8.58-7.95,13.67-18.16,13.67-11.85,0-19.21-5.45-19.39-16.98Z"/>
    <path class="cls-1" d="M248.67,483.79c0-14.58,7.4-24.39,20.89-24.39s20.89,9.76,20.89,24.34-7.4,24.34-20.89,24.34-20.89-9.67-20.89-24.29ZM285.82,483.79c0-12.67-5.4-21.02-16.26-21.02-10.85.04-16.3,8.26-16.3,21.07s5.49,20.89,16.3,20.89,16.26-8.22,16.26-20.93Z"/>
    <path class="cls-1" d="M300.86,506.59l.18-23.66-.18-22.02c0-.36.18-.54.5-.54h3.54c.32,0,.54.18.54.54l-.27,8.72c3.09-6.22,8.95-9.76,15.3-9.76,1.27,0,2.45.09,3.45.36.32.09.45.32.45.59v2.63c0,.32-.18.54-.59.45-.95-.23-2.04-.36-3.36-.36-6.81,0-13.71,4.5-15.17,14.71l.18,28.34c0,.36-.18.54-.54.54h-3.54c-.32,0-.5-.18-.5-.54Z"/>
  </g>
</svg>